<svg xmlns="http://www.w3.org/2000/svg" xmlns:xlink="http://www.w3.org/1999/xlink" version="1.1" width="1440pt" height="677.04pt" viewBox="0 0 1440 677.04">
<defs>
<clipPath id="clip_0">
<path transform="matrix(.24,0,0,.24,0,0)" d="M0 0H6000V2821.875H0Z" fill-rule="evenodd"/>
</clipPath>
<clipPath id="clip_1">
<path transform="matrix(.24,0,0,.24,0,0)" d="M75 46.875H156.25V128.125H75Z" fill-rule="evenodd"/>
</clipPath>
<clipPath id="clip_2">
<path transform="matrix(.24,0,0,.24,0,0)" d="M0 0H6000V2821.875H0Z" fill-rule="evenodd"/>
</clipPath>
</defs>
<g clip-path="url(#clip_0)">
<path transform="matrix(.75,0,0,.75,0,0)" d="M8 32V24C7.9999997 22.949423 8.102477 21.908942 8.307434 20.878552 8.512391 19.848162 8.815888 18.847666 9.217926 17.877062 9.619964 16.906458 10.112817 15.984395 10.6964859 15.110874 11.280154 14.237353 11.943422 13.429159 12.686291 12.686291 13.429159 11.943422 14.237353 11.280154 15.110873 10.6964859 15.984395 10.112817 16.906458 9.619965 17.877062 9.217927 18.847666 8.815889 19.848164 8.512392 20.878554 8.307435 21.908942 8.102478 22.949423 8 24 8H144C145.05057 8 146.09105 8.102478 147.12145 8.307435 148.15183 8.512392 149.15233 8.815889 150.12293 9.217927 151.09352 9.619965 152.0156 10.112817 152.88912 10.6964859 153.76264 11.280154 154.57083 11.943422 155.3137 12.686291 156.05657 13.429159 156.71982 14.237353 157.30348 15.110873 157.88716 15.984395 158.38002 16.906458 158.78206 17.877062 159.1841 18.847666 159.4876 19.848164 159.69255 20.878554 159.8975 21.908942 159.99999 22.949423 160 24V32C159.99999 33.050577 159.8975 34.091058 159.69255 35.121446 159.4876 36.15183 159.1841 37.152326 158.78206 38.122934 158.38002 39.09354 157.88716 40.015604 157.3035 40.889123 156.71984 41.762639 156.05657 42.570837 155.3137 43.313707 154.57083 44.056573 153.76264 44.71984 152.88912 45.30351 152.0156 45.887178 151.09352 46.380029 150.12293 46.782068 149.15233 47.184106 148.15183 47.487604 147.12145 47.69256 146.09105 47.897516 145.05057 47.999998 144 48H24C22.949423 47.999998 21.908942 47.897516 20.878552 47.69256 19.848162 47.487604 18.847666 47.184106 17.877062 46.782068 16.906458 46.380029 15.984395 45.887174 15.110874 45.303506 14.237353 44.719839 13.429159 44.056573 12.686291 43.313707 11.943422 42.570837 11.280154 41.762639 10.6964859 40.889123 10.112817 40.015604 9.619964 39.09354 9.217926 38.122934 8.815888 37.152326 8.512391 36.15183 8.307434 35.121446 8.102477 34.091058 7.9999997 33.050577 8 32Z" fill="#ffc0cb"/>
</g>
<g clip-path="url(#clip_1)">
<path transform="matrix(.33620689,0,0,.33620689,18,11.25)" d="M2.5 11V21.592 29.619 58H7.5 56.5V21.592 11H2.5Z" fill="#f0785a"/>
<path transform="matrix(.33620689,0,0,.33620689,18,11.25)" d="M4.5 29H32.5V52H4.5Z" fill="#b35a5b"/>
<path transform="matrix(.33620689,0,0,.33620689,18,11.25)" d="M6.5 31H30.5V50H6.5Z" fill="#b0d3f0"/>
<path transform="matrix(.33620689,0,0,.33620689,18,11.25)" d="M15.5 11H1.878C1.689 11 1.552 10.819 1.604 10.637L5.666 1.8129997C6.174 .708 7.279 0 8.496 0H17.5L15.5 11Z" fill="#ed7161"/>
<path transform="matrix(.33620689,0,0,.33620689,18,11.25)" d="M43.5 11H29.5V0H41.5L43.5 11Z" fill="#ed7161"/>
<path transform="matrix(.33620689,0,0,.33620689,18,11.25)" d="M22.5 25C18.634 25 15.5 21.866 15.5 18V11H29.5V18C29.5 21.866 26.366 25 22.5 25Z" fill="#f0c419"/>
<path transform="matrix(.33620689,0,0,.33620689,18,11.25)" d="M50.5 25C46.634 25 43.5 21.866 43.5 18V11H57.392999C57.451997 11 57.499998 11.048 57.499998 11.107V18C57.5 21.866 54.366 25 50.5 25Z" fill="#f0c419"/>
<path transform="matrix(.33620689,0,0,.33620689,18,11.25)" d="M29.5 11H15.5L17.5 0H29.5V11Z" fill="#f3d55b"/>
<path transform="matrix(.33620689,0,0,.33620689,18,11.25)" d="M57.145 11H43.5L41.5 0H50.503999C51.720998 0 52.825998 .708 53.335 1.814L57.403 10.659C57.451 10.83 57.323 11 57.145 11Z" fill="#f3d55b"/>
<path transform="matrix(.33620689,0,0,.33620689,18,11.25)" d="M8.5 25C4.634 25 1.5 21.866 1.5 18V11.282C1.5 11.126 1.6259999 11 1.782 11H15.5V18C15.5 21.866 12.366 25 8.5 25Z" fill="#d36259"/>
<path transform="matrix(.33620689,0,0,.33620689,18,11.25)" d="M36.5 25C32.634 25 29.5 21.866 29.5 18V11H43.5V18C43.5 21.866 40.366 25 36.5 25Z" fill="#d36259"/>
<path transform="matrix(.33620689,0,0,.33620689,18,11.25)" d="M36.5 29H52.5V58H36.5Z" fill="#f3d55b"/>
<path transform="matrix(.33620689,0,0,.33620689,18,11.25)" d="M38.5 31H50.5V56H38.5Z" fill="#b0d3f0"/>
<path transform="matrix(.33620689,0,0,.33620689,18,11.25)" d="M48.5 47C47.947 47 47.5 46.553 47.5 46V43C47.5 42.447 47.947 42 48.5 42 49.053 42 49.5 42.447 49.5 43V46C49.5 46.553 49.053 47 48.5 47Z" fill="#ffffff"/>
<path transform="matrix(.33620689,0,0,.33620689,18,11.25)" d="M17.5 38C17.756 38 18.012 37.902 18.207 37.707L22.207 33.707C22.598002 33.316 22.598002 32.684003 22.207 32.293 21.816 31.901997 21.184 31.901999 20.793002 32.293L16.793002 36.293C16.402 36.684 16.402 37.315999 16.793002 37.707 16.988 37.902 17.244 38 17.5 38Z" fill="#ffffff"/>
<path transform="matrix(.33620689,0,0,.33620689,18,11.25)" d="M17.5 43C17.756 43 18.012 42.902 18.207 42.707L20.207 40.707C20.598002 40.316 20.598002 39.684003 20.207 39.293 19.816 38.901998 19.184 38.902 18.793002 39.293L16.793002 41.293C16.402 41.684 16.402 42.315999 16.793002 42.707 16.988 42.902 17.244 43 17.5 43Z" fill="#ffffff"/>
<path transform="matrix(.33620689,0,0,.33620689,18,11.25)" d="M20.79 37.29C20.609002 37.479 20.5 37.74 20.5 38 20.5 38.26 20.609 38.52 20.79 38.7 20.979 38.889 21.229 39 21.5 39 21.76 39 22.02 38.89 22.21 38.71 22.39 38.52 22.5 38.26 22.5 38 22.5 37.74 22.39 37.479 22.21 37.29 21.84 36.92 21.16 36.92 20.79 37.29Z" fill="#ffffff"/>
<path transform="matrix(.33620689,0,0,.33620689,18,11.25)" d="M22.793 36.707C22.988 36.902 23.244 37 23.5 37 23.756 37 24.012 36.902 24.207 36.707L27.207 33.707C27.598002 33.316 27.598002 32.684003 27.207 32.293 26.816 31.901997 26.184 31.901999 25.793002 32.293L22.793002 35.293C22.402 35.684 22.402 36.316 22.793 36.707Z" fill="#ffffff"/>
<path transform="matrix(.33620689,0,0,.33620689,18,11.25)" d="M25.793 37.293 16.793 46.293C16.401999 46.684 16.401999 47.315999 16.793 47.707 16.988 47.902 17.244 48 17.5 48 17.756 48 18.012 47.902 18.207 47.707L27.207 38.707C27.598002 38.316 27.598002 37.684003 27.207 37.293 26.816 36.901998 26.184 36.902 25.793 37.293Z" fill="#ffffff"/>
<path transform="matrix(.33620689,0,0,.33620689,18,11.25)" d="M29.21 35.29C28.839999 34.920003 28.16 34.920003 27.789999 35.29 27.609 35.479 27.499999 35.74 27.499999 36 27.499999 36.26 27.608998 36.52 27.789999 36.71 27.979 36.89 28.24 37 28.5 37 28.76 37 29.02 36.89 29.21 36.71 29.39 36.52 29.5 36.26 29.5 36 29.5 35.74 29.39 35.479 29.21 35.29Z" fill="#ffffff"/>
<path transform="matrix(.33620689,0,0,.33620689,18,11.25)" d="M7.5 58H1.5L.584 52.505C.54 52.241 .744 52 1.012 52H8.5L7.5 58Z" fill="#cb8252"/>
<path transform="matrix(.33620689,0,0,.33620689,18,11.25)" d="M3.5 41H5.5V52H3.5Z" fill="#7f6e5d"/>
<path transform="matrix(.33620689,0,0,.33620689,18,11.25)" d="M8.688 36.68C8.992 35.912 9.209 35.055 9.045 34.236 8.974 33.881 8.812 33.54 8.589 33.271 8.212999 32.815999 8.049 32.162 8.1779999 31.56 8.299999 30.99 8.226999 30.349999 7.9619996 29.838999 7.4789998 28.907999 6.5179998 28.387 5.5629999 28.251 4.8609998 28.151 4.0859997 28.258 3.5659998 28.793999L2.9479998 29.328C2.2459999 29.658999 1.7079997 30.391999 1.5539997 31.224999 1.4709997 31.676999 1.5009997 32.150999 1.6309997 32.588998 1.8249997 33.241998 1.6639997 33.947999 1.2929998 34.496999 .45699973 35.732999 .2359997 37.503999 .85199978 38.906 .92999979 39.084 1.0309998 39.26 1.1489998 39.419 1.5529999 39.961999 1.7049998 40.682 1.5359998 41.363 1.4969998 41.518999 1.4709997 41.679 1.4559997 41.837999 1.3899998 42.565 1.5379998 43.293 1.6879997 44.004999 1.8439998 44.745 2.0359998 45.544 2.5759998 46.007997 3.3079997 46.636999 4.3679997 46.392995 5.206 45.960996 6.39 45.349996 7.486 44.343996 7.904 42.963994 8.148 42.158994 8.09 41.224996 7.763 40.468996 7.433 39.704996 7.433 38.797994 7.9110004 38.138994 8.23 37.7 8.485 37.194 8.688 36.68Z" fill="#24ae5f"/>
</g>
<g clip-path="url(#clip_2)">
<text fill="#ed7161" xml:space="preserve" transform="matrix(.75 0 0 .75 0 0)" font-size="22" font-family="LiberationSerif" font-weight="bold"><tspan y="35" x="58.21875 75.33475 90.00875 101.00875 113.24075 123.00875 132.77675">HBakery</tspan></text>
</g>
</svg>
